<svg xmlns="http://www.w3.org/2000/svg" version="1.1" xmlns:xlink="http://www.w3.org/1999/xlink" width="512" height="512" x="0" y="0" viewBox="0 0 512 512" style="enable-background:new 0 0 512 512" xml:space="preserve"><g><path d="m498.232 413.742.934-1.618a22.562 22.562 0 0 0 0-22.5l-28.164-48.782c.012-.172.026-.344.026-.52v-90.35c0-4.143-3.358-7.5-7.5-7.5s-7.5 3.357-7.5 7.5v64.934l-.034-.059a22.563 22.563 0 0 0-19.485-11.25h-18.48v-51.104c0-12.406-10.093-22.5-22.5-22.5h-93.94c-12.407 0-22.5 10.094-22.5 22.5v83.278h-12.5a7.5 7.5 0 0 0-7.5 7.5v15c0 12.406 10.093 22.5 22.5 22.5h11.031l-5.111 8.853c-3.978 6.89-4.001 15.438-.078 22.354H98.971V252.494c0-4.136 3.365-7.5 7.5-7.5h113.94c4.135 0 7.5 3.364 7.5 7.5v144.984c0 4.143 3.358 7.5 7.5 7.5s7.5-3.357 7.5-7.5V252.494c0-12.406-10.093-22.5-22.5-22.5h-113.94c-12.407 0-22.5 10.094-22.5 22.5v159.484h-28V160.599c0-4.143-3.358-7.5-7.5-7.5s-7.5 3.357-7.5 7.5v251.379H22.5c-12.407 0-22.5 10.094-22.5 22.5s10.093 22.5 22.5 22.5h290.905L330.68 486.9a22.564 22.564 0 0 0 19.485 11.25h86.344a22.561 22.561 0 0 0 19.485-11.25l17.276-29.922h16.23c12.407 0 22.5-10.094 22.5-22.5 0-9.311-5.686-17.319-13.768-20.736zm-95.203-161.248v51.104h-46.97v-58.604h39.47c4.136 0 7.5 3.364 7.5 7.5zm-108.941 0c0-4.136 3.364-7.5 7.5-7.5h39.47v60.551c-4.289 1.905-7.964 5.122-10.378 9.303l-12.08 20.924h-24.511v-83.278zm-12.5 113.278c-4.136 0-7.5-3.364-7.5-7.5v-7.5h35.851l-8.66 15zM22.5 441.978c-4.135 0-7.5-3.364-7.5-7.5s3.365-7.5 7.5-7.5h273.559l.025-.001 8.661 15.001zM443.004 479.4a7.52 7.52 0 0 1-6.495 3.75h-86.344a7.523 7.523 0 0 1-6.495-3.75l-43.171-74.774a7.525 7.525 0 0 1 0-7.501l43.172-74.776a7.523 7.523 0 0 1 6.495-3.75h86.344a7.52 7.52 0 0 1 6.495 3.75l43.172 74.776a7.523 7.523 0 0 1 0 7.5zm46.496-37.422h-7.57l8.613-14.919c3.642.511 6.456 3.638 6.456 7.419.001 4.136-3.363 7.5-7.499 7.5zM8.953 139.794c5.689 4.147 12.796 5.29 19.499 3.13l220.653-71.035a22.387 22.387 0 0 1 13.79 0l193.134 62.177v85.908c0 4.143 3.358 7.5 7.5 7.5s7.5-3.357 7.5-7.5v-81.079l12.52 4.031a21.975 21.975 0 0 0 6.74 1.068c4.523 0 8.957-1.429 12.758-4.199 5.69-4.146 8.953-10.561 8.953-17.601 0-9.49-6.07-17.822-15.104-20.731l-69.179-22.271V64.95l25.235 8.124a7.504 7.504 0 0 0 9.438-4.842 7.5 7.5 0 0 0-4.841-9.438L319.061 14.211a7.504 7.504 0 0 0-9.438 4.842 7.5 7.5 0 0 0 4.841 9.437l29.832 9.604v14.241l-67.61-21.766c-13.532-4.355-27.838-4.355-41.37 0l-67.61 21.766V38.094l29.832-9.604a7.5 7.5 0 1 0-4.597-14.279L54.452 58.794a7.501 7.501 0 0 0 4.597 14.28l25.235-8.124v14.241l-69.179 22.271A21.716 21.716 0 0 0 0 122.193c0 7.04 3.263 13.455 8.953 17.601zm350.342-96.871 53.421 17.198v14.241l-53.421-17.198zM99.283 60.121l53.421-17.198v14.241L99.283 74.362zm-79.582 55.62 220.21-70.893c10.525-3.389 21.652-3.388 32.177-.001l220.21 70.893a6.76 6.76 0 0 1 4.702 6.453 6.713 6.713 0 0 1-2.787 5.479 6.705 6.705 0 0 1-6.069.974L267.492 57.611A37.424 37.424 0 0 0 256 55.795c-3.866 0-7.733.605-11.492 1.815L23.856 128.645c-2.084.674-4.298.317-6.069-.974S15 124.384 15 122.193a6.759 6.759 0 0 1 4.701-6.452z" fill="#ffd25e" opacity="1" data-original="#000000"></path><path d="M113.971 339.015v28.941c0 4.143 3.358 7.5 7.5 7.5s7.5-3.357 7.5-7.5v-28.941a7.5 7.5 0 0 0-15 0zM275.251 183.186c-6.143 6.144-12.357 8.999-18.993 8.789-4.163-.183-7.611 3.097-7.754 7.237s3.098 7.611 7.237 7.753c.424.015.845.022 1.267.022 10.389-.001 20.09-4.436 28.849-13.195 13.727-13.727 19.039-36.437 20.686-45.563 1.455-8.062 2.042-15.801 1.698-22.376-.427-8.172-2.244-13.754-5.554-17.064s-8.892-5.126-17.063-5.554c-6.576-.342-14.313.243-22.376 1.698-9.127 1.647-31.837 6.959-45.563 20.686-17.131 17.131-17.416 38.787-1.085 58.651l-10.738 10.738a7.5 7.5 0 0 0 10.606 10.607l58.96-58.959a7.5 7.5 0 0 0-10.606-10.607l-37.566 37.565c-10.634-13.496-10.298-26.056 1.035-37.388 7.16-7.16 20.658-13.233 36.109-16.247 14.908-2.909 25.024-1.835 27.636-.538 1.295 2.612 2.37 12.729-.538 27.636-3.014 15.45-9.087 28.949-16.247 36.109zM435.429 378.375h-25.713l8.154-34.117c1.209-5.06-1.215-10.18-5.894-12.452-4.68-2.272-10.202-1.009-13.431 3.069l-55.925 70.674c-2.64 3.336-3.128 7.787-1.275 11.617s5.647 6.209 9.901 6.209h25.713l-8.153 34.117c-1.209 5.06 1.215 10.18 5.894 12.452a11.048 11.048 0 0 0 4.834 1.12c3.266 0 6.442-1.468 8.596-4.189l55.924-70.674c2.64-3.337 3.129-7.788 1.276-11.618s-5.647-6.208-9.901-6.208zm-47.825 64.993 6.153-25.75a7.502 7.502 0 0 0-7.295-9.244h-26.95l39.56-49.992-6.154 25.749a7.502 7.502 0 0 0 7.295 9.244h26.95z" fill="#ffd25e" opacity="1" data-original="#000000"></path></g></svg>