<svg xmlns="http://www.w3.org/2000/svg" version="1.1" xmlns:xlink="http://www.w3.org/1999/xlink" width="512" height="512" x="0" y="0" viewBox="0 0 512 512" style="enable-background:new 0 0 512 512" xml:space="preserve" class=""><g><path d="M266.568 233.007v14.786c0 9.896 6.271 18.354 15.047 21.612v8.48c0 10.04 6.455 18.595 15.431 21.748v8.347c0 12.708 10.338 23.046 23.046 23.046h19.527c12.708 0 23.046-10.338 23.046-23.046v-8.346c8.976-3.152 15.431-11.708 15.431-21.748v-8.48c8.776-3.259 15.047-11.716 15.047-21.612v-14.786c2.294-38.502 11.838-54.819 21.07-70.597 8.349-14.27 16.235-27.747 16.235-53.817C430.448 53.126 385.322 8 329.855 8S229.263 53.126 229.263 108.593c0 26.07 7.887 39.548 16.235 53.817 9.232 15.778 18.776 32.094 21.07 70.597zm88.483 51.926h-50.389a7.055 7.055 0 0 1-7.047-7.047v-7.047h64.48v7.047c.001 3.885-3.159 7.047-7.044 7.047zm15.046-30.094h-80.482a7.054 7.054 0 0 1-7.046-7.046v-7.048h94.574v7.048c0 3.885-3.162 7.046-7.046 7.046zm-30.478 60.187h-19.527a7.054 7.054 0 0 1-7.046-7.046v-7.048h33.619v7.048a7.054 7.054 0 0 1-7.046 7.046zM329.855 24c46.645 0 84.593 37.948 84.593 84.593 0 21.733-6.198 32.326-14.045 45.737-8.681 14.835-19.354 33.073-22.691 70.415h-95.713c-3.338-37.342-14.011-55.58-22.691-70.415-7.847-13.411-14.045-24.004-14.045-45.737 0-46.645 37.948-84.593 84.592-84.593zM215.824 190.209a8.002 8.002 0 0 1-2.929 10.929l-18.888 10.904a8 8 0 0 1-10.929-2.929 8.002 8.002 0 0 1 2.929-10.929l18.888-10.904a8.003 8.003 0 0 1 10.929 2.929zm283.514-65.836a8 8 0 0 1-8 8h-21.811a8 8 0 0 1 0-16h21.811a8 8 0 0 1 8 8zm-22.707 84.741a7.997 7.997 0 0 1-10.928 2.928l-18.889-10.905a8 8 0 0 1-2.928-10.928 7.997 7.997 0 0 1 10.928-2.928l18.889 10.905a8 8 0 0 1 2.928 10.928zM183.08 39.631a7.998 7.998 0 0 1 10.928-2.928l18.889 10.905a8 8 0 0 1-4.008 14.929 7.966 7.966 0 0 1-3.992-1.073l-18.889-10.905a8 8 0 0 1-2.928-10.928zm-22.707 84.741a8 8 0 0 1 8-8h21.811a8 8 0 0 1 0 16h-21.811a8 8 0 0 1-8-8zm283.514-65.835a8 8 0 0 1 2.928-10.928l18.889-10.905a7.998 7.998 0 0 1 10.928 2.928 8 8 0 0 1-2.928 10.928l-18.889 10.905a7.994 7.994 0 0 1-10.928-2.928zm-44.369 262.102-83.84 48.832c-3.742 2.18-7.543 3.782-11.485 4.823 1.352-2.399 2.432-5.059 3.208-7.955 4.362-16.283-5.307-33.282-22.013-38.699a8.366 8.366 0 0 0-1.048-.263c-24.051-4.338-47.81-12.927-66.9-19.829-6.642-2.4-12.915-4.669-18.255-6.4-21.675-7.033-41.214 1.642-57.473 11.056l-61.885 35.831-5.603-9.899c-5.524-9.762-17.959-13.212-27.725-7.685l-23.523 13.313c-4.717 2.669-8.115 7.028-9.569 12.274-1.455 5.246-.785 10.732 1.885 15.45L84.45 493.686c2.669 4.717 7.028 8.115 12.274 9.569a20.48 20.48 0 0 0 5.487.752c3.462 0 6.877-.89 9.963-2.637l23.523-13.313c4.717-2.669 8.115-7.028 9.57-12.274 1.454-5.246.784-10.732-1.886-15.45l-6.856-12.115 13.536-7.815 107.157 28.713c5.974 1.601 11.916 2.396 17.762 2.396 11.822-.001 23.243-3.255 33.683-9.682l152.149-93.687c14.116-8.691 18.605-30.578 9.417-45.919-4.454-7.438-22.721-29.536-70.711-1.585zM129.85 471.508c-.181.653-.686 1.862-2.032 2.625l-23.523 13.313c-1.346.762-2.643.57-3.295.391-.653-.181-1.862-.686-2.625-2.032L29.216 363.607c-1.159-2.049-.408-4.76 1.642-5.92l23.523-13.313a4.217 4.217 0 0 1 2.099-.553c.491 0 .907.082 1.196.162.653.181 1.862.686 2.625 2.032l69.158 122.197c.762 1.347.571 2.643.391 3.296zm322.575-116.99-152.149 93.687c-11.928 7.343-25.021 9.18-38.914 5.455l-110.358-29.57a7.987 7.987 0 0 0-6.07.8l-16.288 9.403-40.937-72.333 62.021-35.91c13.869-8.03 28.864-14.76 44.519-9.683 5.087 1.65 10.956 3.772 17.752 6.229 19.507 7.053 43.744 15.815 68.917 20.422 8.455 2.977 13.184 11.14 11.028 19.182-2.839 10.595-11.7 11.903-18.761 11.093-12.311-2.535-24.022-5.876-36.412-9.415-5.891-1.682-11.981-3.422-18.244-5.1a8 8 0 0 0-4.141 15.455c6.136 1.644 12.163 3.365 17.991 5.029 12.808 3.658 24.905 7.113 37.941 9.778.052.011.263.05.318.059l10.427 1.695c15.731 2.517 29.684.062 42.665-7.497l83.84-48.832c23.834-13.883 42.129-15.383 48.934-4.02 4.674 7.803 2.615 19.951-4.079 24.073zM60.93 367.487a8.398 8.398 0 1 1-16.62 2.43 8.398 8.398 0 0 1 16.62-2.43zm268.925-191.158c37.35 0 67.735-30.387 67.735-67.736s-30.386-67.735-67.735-67.735-67.735 30.386-67.736 67.735c0 37.349 30.387 67.736 67.736 67.736zm0-119.472c28.527 0 51.735 23.208 51.735 51.735s-23.208 51.736-51.735 51.736-51.736-23.209-51.736-51.736c.001-28.527 23.21-51.735 51.736-51.735zm-23.395 75.131v12.246a8 8 0 0 0 8 8h30.791a8 8 0 0 0 8-8v-12.246h12.246a8 8 0 0 0 8-8V93.197a8 8 0 0 0-8-8h-12.246V72.951a8 8 0 0 0-8-8H314.46a8 8 0 0 0-8 8v12.246h-12.246a8 8 0 0 0-8 8v30.791a8 8 0 0 0 8 8zm-4.246-30.791h12.246a8 8 0 0 0 8-8V80.951h14.791v12.246a8 8 0 0 0 8 8h12.246v14.791h-12.246a8 8 0 0 0-8 8v12.246H322.46v-12.246a8 8 0 0 0-8-8h-12.246z" fill="#ffd25e" opacity="1" data-original="#000000"></path></g></svg>