<svg xmlns="http://www.w3.org/2000/svg" version="1.1" xmlns:xlink="http://www.w3.org/1999/xlink" width="512" height="512" x="0" y="0" viewBox="0 0 512.002 512.002" style="enable-background:new 0 0 512 512" xml:space="preserve" class=""><g><path d="M36.001 250.701h440v62.601l-35.3 2.87c-4.863 26.437-15.263 50.935-29.953 72.248l22.95 27.012-44.266 44.266-27.014-22.952c-21.315 14.685-45.808 25.088-72.245 29.948l-2.87 35.307h-62.601l-2.87-35.3c-26.437-4.863-50.935-15.263-72.248-29.953l-27.012 22.95-44.266-44.266 22.952-27.014c-14.685-21.315-25.088-45.809-29.948-72.245l-35.307-2.871-.002-62.601z" style="fill-rule:evenodd;clip-rule:evenodd;stroke-width:20;stroke-linecap:round;stroke-linejoin:round;stroke-miterlimit:22.9256;" fill-rule="evenodd" clip-rule="evenodd" fill="none" stroke="#ffd25e" stroke-width="20" stroke-linecap="round" stroke-linejoin="round" stroke-miterlimit="22.9256" data-original="#000000" opacity="1" class=""></path><path d="M372.436 252.972a120.018 120.018 0 0 1 3.565 29.031c0 66.274-53.726 120-120 120s-120-53.726-120-120a120.03 120.03 0 0 1 3.565-29.031M286.001 245.701V130h20l-50-70-50 70h20v115.701M426.001 245.701V80h20l-50-70-50 70h20v165.701M146.001 245.701v-65.7h20l-50-70-50 70h20v65.7" style="fill-rule:evenodd;clip-rule:evenodd;stroke-width:20;stroke-linecap:round;stroke-linejoin:round;stroke-miterlimit:22.9256;" fill-rule="evenodd" clip-rule="evenodd" fill="none" stroke="#ffd25e" stroke-width="20" stroke-linecap="round" stroke-linejoin="round" stroke-miterlimit="22.9256" data-original="#000000" opacity="1" class=""></path></g></svg>