<svg width="64" height="64" viewBox="0 0 64 64" fill="none" xmlns="http://www.w3.org/2000/svg">
<g id="&#240;&#159;&#167;&#172; Theme">
<g id="Vector">
<path fill-rule="evenodd" clip-rule="evenodd" d="M19.4281 8.26271C20.1115 7.79448 21.0451 7.96893 21.5133 8.65234L31.695 23.5133L36.2546 18.7597C36.8281 18.1618 37.7776 18.142 38.3755 18.7155C38.9733 19.2889 38.9931 20.2385 38.4197 20.8364L32.9809 26.5065L32.1017 53.5489C32.0747 54.3769 31.3817 55.0263 30.5537 54.9993C29.7257 54.9724 29.0763 54.2794 29.1032 53.4514L29.121 52.9059L22.2735 48.2867L8.9648 43.1991C8.19099 42.9033 7.80348 42.0362 8.09929 41.2624C8.39509 40.4886 9.26219 40.1011 10.036 40.3969L23.5054 45.5458C23.6122 45.5866 23.7139 45.6395 23.8087 45.7034L29.2361 49.3648L29.9852 26.3255L19.0385 10.3479C18.5703 9.66453 18.7447 8.73094 19.4281 8.26271Z" fill="#EBC03F"/>
<path fill-rule="evenodd" clip-rule="evenodd" d="M8.53274 31.0078C8.80468 30.2252 9.65949 29.8113 10.442 30.0833L15.8298 31.9556C16.1755 32.0758 16.4655 32.3182 16.6449 32.6373L18.1152 35.2523L23.7866 30.364C24.4141 29.8231 25.3613 29.8933 25.9021 30.5208C26.443 31.1483 26.3728 32.0955 25.7453 32.6363L19.6152 37.92L24.2775 46.2118C24.6835 46.9339 24.4273 47.8484 23.7052 48.2544C22.9831 48.6605 22.0686 48.4042 21.6625 47.6821L14.3083 34.6029L9.45723 32.917C8.67471 32.6451 8.2608 31.7903 8.53274 31.0078Z" fill="#EBC03F"/>
<path fill-rule="evenodd" clip-rule="evenodd" d="M46.5914 24.0118C47.1078 24.6596 47.0014 25.6034 46.3536 26.1198L39.0483 31.9439L32.4585 49.8065C32.4085 49.942 32.341 50.0659 32.2596 50.1767L40.3185 42.1401C40.5997 41.8597 40.9806 41.7022 41.3777 41.7022H50.3111L52.1477 37.8727C52.5059 37.1258 53.4018 36.8106 54.1488 37.1689C54.8958 37.5271 55.2109 38.4231 54.8527 39.17L52.6078 43.8509C52.3582 44.3712 51.8323 44.7022 51.2553 44.7022H41.9978L32.1104 54.5622C31.5238 55.1472 30.574 55.1459 29.9891 54.5593C29.4041 53.9727 29.4054 53.023 29.992 52.438L31.9382 50.4972C31.546 50.7841 31.0221 50.8754 30.532 50.6946C29.7548 50.4079 29.3572 49.5454 29.6439 48.7682L36.3786 30.5129C36.4734 30.2559 36.6367 30.0299 36.8508 29.8591L44.4835 23.774C45.1312 23.2576 46.075 23.3641 46.5914 24.0118Z" fill="#EBC03F"/>
</g>
</g>
</svg>
