<svg xmlns="http://www.w3.org/2000/svg" version="1.1" xmlns:xlink="http://www.w3.org/1999/xlink" width="512" height="512" x="0" y="0" viewBox="0 0 24 24" style="enable-background:new 0 0 512 512" xml:space="preserve" class=""><g><g data-name="Layer 2"><path fill="#ffd25e" d="M3 12.75a.75.75 0 0 1-.48-1.33l6-5a.76.76 0 0 1 1 0L12 9l8.5-7.56a.75.75 0 1 1 1 1.12l-9 8a.76.76 0 0 1-1 0L9 8l-5.52 4.58a.78.78 0 0 1-.48.17z" opacity="1" data-original="#7fbde7" class=""></path><path fill="#ffd25e" d="M21 5.75a.76.76 0 0 1-.75-.75V2.75H18a.75.75 0 0 1 0-1.5h3a.76.76 0 0 1 .75.75v3a.76.76 0 0 1-.75.75z" opacity="1" data-original="#7fbde7" class=""></path><g fill="#232323"><path d="M16 22.75a.76.76 0 0 1-.75-.75V12a.75.75 0 0 1 1.5 0v10a.76.76 0 0 1-.75.75zM20 22.75a.76.76 0 0 1-.75-.75V9a.75.75 0 0 1 1.5 0v13a.76.76 0 0 1-.75.75zM12 22.75a.76.76 0 0 1-.75-.75v-8a.75.75 0 0 1 1.5 0v8a.76.76 0 0 1-.75.75zM8 22.75a.76.76 0 0 1-.75-.75v-6a.75.75 0 0 1 1.5 0v6a.76.76 0 0 1-.75.75zM4 22.75a.76.76 0 0 1-.75-.75v-4a.75.75 0 0 1 1.5 0v4a.76.76 0 0 1-.75.75z" fill="#ffd25e" opacity="1" data-original="#232323" class=""></path></g></g></g></svg>