<svg xmlns="http://www.w3.org/2000/svg" version="1.1" xmlns:xlink="http://www.w3.org/1999/xlink" width="512" height="512" x="0" y="0" viewBox="0 0 480.008 480.008" style="enable-background:new 0 0 512 512" xml:space="preserve" class=""><g><path d="M72.005 288h64v16h-64zM479.161 380.422l-24-48a8 8 0 0 0-7.156-4.422h-48v-24a8 8 0 0 0-8-8h-160a8 8 0 0 0-8 8v144a8 8 0 0 0 8 8h33.136c4.332 17.046 21.663 27.352 38.708 23.02a31.846 31.846 0 0 0 23.02-23.02h58.272c4.332 17.046 21.663 27.352 38.708 23.02a31.846 31.846 0 0 0 23.02-23.02h25.136a8 8 0 0 0 8-8v-64a8.007 8.007 0 0 0-.844-3.578zM296.005 464c-8.837 0-16-7.163-16-16s7.163-16 16-16 16 7.163 16 16c-.009 8.833-7.167 15.991-16 16zm88-24h-57.136c-3.627-14.092-16.313-23.956-30.864-24-14.551.044-27.237 9.908-30.864 24h-25.136V312h144v128zm48-96h11.055l16.001 32h-27.056v-32zm-16 120c-8.837 0-16-7.163-16-16s7.163-16 16-16 16 7.163 16 16c-.009 8.833-7.167 15.991-16 16zm48-24h-17.136c-3.627-14.092-16.313-23.956-30.864-24a31.624 31.624 0 0 0-16 4.452V344h16v40a8 8 0 0 0 8 8h40v48zM176.005 112h15.992v16h-15.992zM208.005 112h15.992v16h-15.992zM240.005 112h15.992v16h-15.992zM272.005 112h15.992v16h-15.992z" fill="#ffd25e" opacity="1" data-original="#000000"></path><path d="m440.7 133.625-24.785-24.789A98.604 98.604 0 0 0 346.485 80h-62.046L246.79 19.762A8.007 8.007 0 0 0 240.005 16h-24a8.004 8.004 0 0 0-7.762 9.942L221.758 80h-63.8L135.669 5.703A8.002 8.002 0 0 0 128.005 0h-40a8 8 0 0 0-8 8v80h.075a7.938 7.938 0 0 0 2.269 5.656l50 50A109.567 109.567 0 0 0 210.325 176h2.179l-19.878 44.754a8 8 0 0 0 4.781 10.836l23.984 8a8.004 8.004 0 0 0 9.086-3.004L272.861 176h150.265c13.704.025 24.833-11.063 24.859-24.767a24.814 24.814 0 0 0-7.285-17.608zM235.571 32l30 48h-27.319l-12.001-48h9.32zM96.005 16h26.047l19.2 64H96.005V16zM220.79 222.523l-9.965-3.324L237.118 160h27.41l-43.738 62.523zm210.543-68.007a8.697 8.697 0 0 1-8.207 5.484H284.054l2.388-3.414A8.002 8.002 0 0 0 279.887 144h-47.969a8 8 0 0 0-7.312 4.754L219.611 160h-9.286a93.68 93.68 0 0 1-66.664-27.656L107.317 96h239.168a82.495 82.495 0 0 1 48.47 16h-58.95v16h76.441l16.961 16.961a8.588 8.588 0 0 1 1.926 9.555zM196.11 458.121a31.97 31.97 0 0 0-19.118-9.895l30.548-85.535a8.008 8.008 0 0 0-5.004-10.281l-19.508-6.503-15.152-83.337a8 8 0 0 0-7.871-6.57h-32v-24a8 8 0 0 0-8-8h-32a8 8 0 0 0-8 8v24h-32a8 8 0 0 0-7.871 6.57l-15.152 83.337-19.508 6.503A8.008 8.008 0 0 0 .42 362.545l.05.146 30.548 85.538a31.98 31.98 0 0 0-19.087 9.892A15.549 15.549 0 0 1 .005 464v16a31.063 31.063 0 0 0 22.77-10.117A15.548 15.548 0 0 1 34.705 464c1.69-.014 3.367.299 4.939.921.067.03.11.094.178.122a24.758 24.758 0 0 1 6.738 4.93A31.456 31.456 0 0 0 69.4 480a31.047 31.047 0 0 0 22.762-10.121c5.033-6.574 14.442-7.824 21.016-2.792a14.996 14.996 0 0 1 2.789 2.788A31.014 31.014 0 0 0 138.717 480a31.401 31.401 0 0 0 22.82-10.031 24.78 24.78 0 0 1 6.676-4.906c.072-.03.118-.098.188-.13a13.06 13.06 0 0 1 4.956-.932 15.48 15.48 0 0 1 11.895 5.879 31.038 31.038 0 0 0 22.753 10.121v-16a15.485 15.485 0 0 1-11.895-5.88zM96.005 240h16v16h-16v-16zm0 209.043a34.447 34.447 0 0 0-14.695 9.078c-5.046 6.581-14.472 7.825-21.053 2.779a15.016 15.016 0 0 1-2.779-2.779 45.427 45.427 0 0 0-8.205-6.359l-30.987-86.758L96.005 339.1v109.943zm5.469-128.633-59.181 19.727L54.681 272h98.648l12.388 68.137-59.181-19.727a8.013 8.013 0 0 0-5.062 0zm57.247 131.404a45.574 45.574 0 0 0-8.114 6.311c-5.023 6.567-14.419 7.818-20.986 2.795a14.975 14.975 0 0 1-2.795-2.795 34.248 34.248 0 0 0-14.82-9.127V339.1l77.719 25.904-31.004 86.81z" fill="#ffd25e" opacity="1" data-original="#000000"></path><path d="M304.005 112h15.992v16h-15.992z" fill="#ffd25e" opacity="1" data-original="#000000"></path></g></svg>